<svg xmlns="http://www.w3.org/2000/svg" width="820" height="496" viewBox="0 0 820 496" role="img" font-family="system-ui, -apple-system, 'Segoe UI', sans-serif">
<title>Calibration</title>
<desc>Firebathero: L6, Staff Engineer, Performance, 284 merged, 207 in review. dkempner: L7, Senior Staff Engineer, JavaScript, 442 merged, 9 in review. Kethankumar99: L4, Software Engineer II, Device Drivers, 31 merged, 0 in review. senthilkumar-r: L3, Software Engineer, Device Drivers, 16 merged, 0 in review. GalaktusSK: L3, Software Engineer, Generalist, 0 merged, 15 in review. </desc>
<rect x="0.0" y="0.0" width="820.0" height="496.0" rx="0" fill="#1a1a19"/>
<text x="16.0" y="28.0" fill="#ffffff" font-size="18" font-weight="700" text-anchor="start">Calibration</text>
<text x="16.0" y="48.0" fill="#c3c2b7" font-size="12" font-weight="400" text-anchor="start">Leveled on merged code. Darker: in review. Faded: 30 days at today's pace.</text>
<rect x="304.8" y="74.0" width="6.8" height="338.0" rx="0" fill="#232322"/>
<rect x="329.0" y="74.0" width="38.7" height="338.0" rx="0" fill="#232322"/>
<text x="348.4" y="86.0" fill="#9a7ef0" font-size="11" font-weight="700" text-anchor="middle">L6</text>
<text x="411.3" y="86.0" fill="#d95926" font-size="11" font-weight="700" text-anchor="middle">L7</text>
<rect x="454.9" y="74.0" width="329.1" height="338.0" rx="0" fill="#232322"/>
<text x="619.4" y="86.0" fill="#e0457f" font-size="11" font-weight="700" text-anchor="middle">L8</text>
<rect x="16.0" y="100.0" width="34.0" height="26.0" rx="5" fill="#9a7ef0"/>
<text x="33.0" y="118.0" fill="#ffffff" font-size="13" font-weight="700" text-anchor="middle">L6</text>
<text x="60.0" y="111.0" fill="#ffffff" font-size="14" font-weight="700" text-anchor="start">Firebathero</text>
<text x="60.0" y="127.0" fill="#c3c2b7" font-size="11" font-weight="400" text-anchor="start">Staff Engineer, Performance</text>
<text x="60.0" y="142.0" fill="#898781" font-size="10" font-weight="400" text-anchor="start">3 merged · 4 in review · L7 promo when their open PRs merge</text>
<rect x="300.0" y="104.0" width="330.9" height="20.0" rx="5" fill="#9a7ef0" fill-opacity="0.22"/>
<rect x="300.0" y="104.0" width="95.1" height="20.0" rx="5" fill="#9a7ef0" fill-opacity="0.55"/>
<rect x="300.0" y="104.0" width="55.0" height="20.0" rx="5" fill="#9a7ef0"/>
<text x="636.9" y="119.0" fill="#ffffff" font-size="11" font-weight="700" text-anchor="start">284</text>
<rect x="16.0" y="164.0" width="34.0" height="26.0" rx="5" fill="#d95926"/>
<text x="33.0" y="182.0" fill="#ffffff" font-size="13" font-weight="700" text-anchor="middle">L7</text>
<text x="60.0" y="175.0" fill="#ffffff" font-size="14" font-weight="700" text-anchor="start">dkempner</text>
<text x="60.0" y="191.0" fill="#c3c2b7" font-size="11" font-weight="400" text-anchor="start">Senior Staff Engineer, JavaScript</text>
<text x="60.0" y="206.0" fill="#898781" font-size="10" font-weight="400" text-anchor="start">17 merged · 1 in review · L8 promo in ~6 days</text>
<rect x="300.0" y="168.0" width="454.1" height="20.0" rx="5" fill="#d95926" fill-opacity="0.22"/>
<rect x="300.0" y="168.0" width="87.3" height="20.0" rx="5" fill="#d95926" fill-opacity="0.55"/>
<rect x="300.0" y="168.0" width="85.6" height="20.0" rx="5" fill="#d95926"/>
<text x="760.1" y="183.0" fill="#ffffff" font-size="11" font-weight="700" text-anchor="end">442</text>
<rect x="16.0" y="228.0" width="34.0" height="26.0" rx="5" fill="#199e70"/>
<text x="33.0" y="246.0" fill="#ffffff" font-size="13" font-weight="700" text-anchor="middle">L4</text>
<text x="60.0" y="239.0" fill="#ffffff" font-size="14" font-weight="700" text-anchor="start">Kethankumar99</text>
<text x="60.0" y="255.0" fill="#c3c2b7" font-size="11" font-weight="400" text-anchor="start">Software Engineer II, Device Drivers</text>
<text x="60.0" y="270.0" fill="#898781" font-size="10" font-weight="400" text-anchor="start">1 merged · L5 promo in ~7 days</text>
<rect x="300.0" y="232.0" width="31.5" height="20.0" rx="5" fill="#199e70" fill-opacity="0.22"/>
<rect x="300.0" y="232.0" width="6.0" height="20.0" rx="5" fill="#199e70" fill-opacity="0.55"/>
<rect x="300.0" y="232.0" width="6.0" height="20.0" rx="5" fill="#199e70"/>
<text x="337.5" y="247.0" fill="#ffffff" font-size="11" font-weight="700" text-anchor="start">31</text>
<rect x="16.0" y="292.0" width="34.0" height="26.0" rx="5" fill="#898781"/>
<text x="33.0" y="310.0" fill="#ffffff" font-size="13" font-weight="700" text-anchor="middle">L3</text>
<text x="60.0" y="303.0" fill="#ffffff" font-size="14" font-weight="700" text-anchor="start">senthilkumar-r</text>
<text x="60.0" y="319.0" fill="#c3c2b7" font-size="11" font-weight="400" text-anchor="start">Software Engineer, Device Drivers</text>
<text x="60.0" y="334.0" fill="#898781" font-size="10" font-weight="400" text-anchor="start">1 merged · L4 promo in ~5 days</text>
<rect x="300.0" y="296.0" width="16.3" height="20.0" rx="5" fill="#898781" fill-opacity="0.22"/>
<rect x="300.0" y="296.0" width="3.1" height="20.0" rx="5" fill="#898781" fill-opacity="0.55"/>
<rect x="300.0" y="296.0" width="3.1" height="20.0" rx="5" fill="#898781"/>
<text x="322.3" y="311.0" fill="#ffffff" font-size="11" font-weight="700" text-anchor="start">16</text>
<rect x="16.0" y="356.0" width="34.0" height="26.0" rx="5" fill="#898781"/>
<text x="33.0" y="374.0" fill="#ffffff" font-size="13" font-weight="700" text-anchor="middle">L3</text>
<text x="60.0" y="367.0" fill="#ffffff" font-size="14" font-weight="700" text-anchor="start">GalaktusSK</text>
<text x="60.0" y="383.0" fill="#c3c2b7" font-size="11" font-weight="400" text-anchor="start">Software Engineer, Generalist</text>
<text x="60.0" y="398.0" fill="#898781" font-size="10" font-weight="400" text-anchor="start">0 merged · 1 in review · L4 promo: ship something first</text>
<rect x="300.0" y="360.0" width="3.0" height="20.0" rx="5" fill="#898781" fill-opacity="0.22"/>
<rect x="300.0" y="360.0" width="3.0" height="20.0" rx="5" fill="#898781" fill-opacity="0.55"/>
<rect x="300.0" y="360.0" width="2.0" height="20.0" rx="5" fill="#898781"/>
<text x="309.0" y="375.0" fill="#ffffff" font-size="11" font-weight="700" text-anchor="start">0</text>
<text x="300.0" y="428.0" fill="#898781" font-size="10" font-weight="400" text-anchor="middle">0</text>
<text x="421.0" y="428.0" fill="#898781" font-size="10" font-weight="400" text-anchor="middle">625</text>
<text x="542.0" y="428.0" fill="#898781" font-size="10" font-weight="400" text-anchor="middle">1250</text>
<text x="663.0" y="428.0" fill="#898781" font-size="10" font-weight="400" text-anchor="middle">1875</text>
<text x="784.0" y="428.0" fill="#898781" font-size="10" font-weight="400" text-anchor="middle">2500</text>
<text x="16.0" y="456.0" fill="#898781" font-size="11" font-weight="400" text-anchor="start">JackFurton: Founder &amp; CEO. Not calibrated; does the calibrating.</text>
<text x="16.0" y="476.0" fill="#898781" font-size="11" font-weight="400" text-anchor="start">Review pending: GalaktusSK. The committee has opened a file.</text>
</svg>
