<svg xmlns="http://www.w3.org/2000/svg" width="760" height="594" viewBox="0 0 760 594" role="img" font-family="system-ui, -apple-system, 'Segoe UI', sans-serif">
<title>Duke progress</title>
<desc>Latest (da2972f): Conformance 263; Unit 169; Panic 16; .text 256.4 KB; Compiler 8487; Kernel 9505; </desc>
<rect x="0" y="0" width="760" height="190" rx="8" fill="#fcfcfb"/>
<text x="16.0" y="24.0" fill="#0b0b0b" font-size="14" font-weight="600" text-anchor="start" style="font-variant-numeric: tabular-nums">Tests in the suites</text>
<rect x="16" y="34" width="10" height="10" rx="2" fill="#2a78d6"/>
<text x="31.0" y="43.0" fill="#52514e" font-size="12" font-weight="400" text-anchor="start" style="font-variant-numeric: tabular-nums">Conformance</text>
<rect x="126" y="34" width="10" height="10" rx="2" fill="#eb6834"/>
<text x="141.0" y="43.0" fill="#52514e" font-size="12" font-weight="400" text-anchor="start" style="font-variant-numeric: tabular-nums">Unit</text>
<rect x="187" y="34" width="10" height="10" rx="2" fill="#1baf7a"/>
<text x="202.0" y="43.0" fill="#52514e" font-size="12" font-weight="400" text-anchor="start" style="font-variant-numeric: tabular-nums">Panic</text>
<line x1="52.0" x2="610.0" y1="160.0" y2="160.0" stroke="#c3c2b7" stroke-width="1"/>
<text x="44.0" y="164.0" fill="#898781" font-size="11" font-weight="400" text-anchor="end" style="font-variant-numeric: tabular-nums">0</text>
<line x1="52.0" x2="610.0" y1="124.7" y2="124.7" stroke="#e1e0d9" stroke-width="1"/>
<text x="44.0" y="128.7" fill="#898781" font-size="11" font-weight="400" text-anchor="end" style="font-variant-numeric: tabular-nums">100</text>
<line x1="52.0" x2="610.0" y1="89.3" y2="89.3" stroke="#e1e0d9" stroke-width="1"/>
<text x="44.0" y="93.3" fill="#898781" font-size="11" font-weight="400" text-anchor="end" style="font-variant-numeric: tabular-nums">200</text>
<line x1="52.0" x2="610.0" y1="54.0" y2="54.0" stroke="#e1e0d9" stroke-width="1"/>
<text x="44.0" y="58.0" fill="#898781" font-size="11" font-weight="400" text-anchor="end" style="font-variant-numeric: tabular-nums">300</text>
<text x="52.0" y="178.0" fill="#898781" font-size="11" font-weight="400" text-anchor="middle" style="font-variant-numeric: tabular-nums">Oct 3</text>
<text x="331.0" y="178.0" fill="#898781" font-size="11" font-weight="400" text-anchor="middle" style="font-variant-numeric: tabular-nums">Oct 5</text>
<text x="610.0" y="178.0" fill="#898781" font-size="11" font-weight="400" text-anchor="middle" style="font-variant-numeric: tabular-nums">Oct 6</text>
<polyline points="52.0,134.2 52.4,134.2 53.0,130.7 53.3,126.4 54.5,123.6 54.8,121.1 55.5,116.9 55.9,107.7 56.4,105.2 56.9,98.2 57.4,92.2 58.3,92.2 59.2,92.2 59.8,84.4 60.1,83.0 61.0,83.0 66.1,80.5 66.5,80.5 66.9,80.5 69.5,80.5 70.1,80.5 71.0,80.5 71.9,80.5 72.4,73.4 73.1,73.4 81.4,73.4 82.0,73.4 83.7,73.1 84.3,73.1 237.6,73.1 238.2,73.1 240.1,73.1 243.1,73.1 257.4,73.1 261.0,73.1 403.2,72.7 404.2,72.4 409.1,69.9 438.3,69.9 449.0,69.9 465.1,67.4 466.3,67.1 562.8,67.1 563.8,67.1 570.3,67.1 575.1,67.1 582.6,67.1 584.6,67.1 595.2,67.1 598.5,67.1 605.4,67.1 606.3,67.1 607.7,67.1 608.4,67.1 609.0,67.1 610.0,67.1" fill="none" stroke="#2a78d6" stroke-width="2" stroke-linejoin="round" stroke-linecap="round"/>
<circle cx="610.0" cy="67.1" r="4" fill="#2a78d6" stroke="#fcfcfb" stroke-width="2"/>
<polyline points="52.0,127.8 52.4,127.8 53.0,127.8 53.3,127.8 54.5,126.8 54.8,126.8 55.5,126.8 55.9,125.4 56.4,125.0 56.9,125.0 57.4,125.0 58.3,118.3 59.2,118.3 59.8,116.9 60.1,116.9 61.0,116.9 66.1,116.5 66.5,116.2 66.9,116.2 69.5,116.2 70.1,115.8 71.0,113.0 71.9,113.0 72.4,113.0 73.1,113.0 81.4,113.0 82.0,113.0 83.7,113.0 84.3,113.0 237.6,113.0 238.2,113.0 240.1,113.0 243.1,113.0 257.4,113.0 261.0,113.0 403.2,113.0 404.2,113.0 409.1,113.0 438.3,107.0 449.0,106.6 465.1,106.6 466.3,106.6 562.8,105.6 563.8,104.2 570.3,104.2 575.1,103.8 582.6,103.8 584.6,102.4 595.2,102.4 598.5,102.4 605.4,102.4 606.3,102.1 607.7,101.0 608.4,101.0 609.0,100.3 610.0,100.3" fill="none" stroke="#eb6834" stroke-width="2" stroke-linejoin="round" stroke-linecap="round"/>
<circle cx="610.0" cy="100.3" r="4" fill="#eb6834" stroke="#fcfcfb" stroke-width="2"/>
<polyline points="52.0,160.0 52.4,160.0 53.0,160.0 53.3,160.0 54.5,160.0 54.8,157.2 55.5,157.2 55.9,157.2 56.4,157.2 56.9,157.2 57.4,157.2 58.3,155.8 59.2,155.4 59.8,155.1 60.1,154.7 61.0,154.7 66.1,154.7 66.5,154.7 66.9,154.7 69.5,154.7 70.1,154.7 71.0,154.3 71.9,154.3 72.4,154.3 73.1,154.3 81.4,154.3 82.0,154.3 83.7,154.3 84.3,154.3 237.6,154.3 238.2,154.3 240.1,154.3 243.1,154.3 257.4,154.3 261.0,154.3 403.2,154.3 404.2,154.3 409.1,154.3 438.3,154.3 449.0,154.3 465.1,154.3 466.3,154.3 562.8,154.3 563.8,154.3 570.3,154.3 575.1,154.3 582.6,154.3 584.6,154.3 595.2,154.3 598.5,154.3 605.4,154.3 606.3,154.3 607.7,154.3 608.4,154.3 609.0,154.3 610.0,154.3" fill="none" stroke="#1baf7a" stroke-width="2" stroke-linejoin="round" stroke-linecap="round"/>
<circle cx="610.0" cy="154.3" r="4" fill="#1baf7a" stroke="#fcfcfb" stroke-width="2"/>
<text x="622.0" y="71.1" fill="#52514e" font-size="12" font-weight="400" text-anchor="start" style="font-variant-numeric: tabular-nums">Conformance 263</text>
<text x="622.0" y="104.3" fill="#52514e" font-size="12" font-weight="400" text-anchor="start" style="font-variant-numeric: tabular-nums">Unit 169</text>
<text x="622.0" y="158.3" fill="#52514e" font-size="12" font-weight="400" text-anchor="start" style="font-variant-numeric: tabular-nums">Panic 16</text>
<rect x="0" y="202" width="760" height="190" rx="8" fill="#fcfcfb"/>
<text x="16.0" y="226.0" fill="#0b0b0b" font-size="14" font-weight="600" text-anchor="start" style="font-variant-numeric: tabular-nums">Boot kernel code size (.text)</text>
<line x1="52.0" x2="610.0" y1="362.0" y2="362.0" stroke="#c3c2b7" stroke-width="1"/>
<text x="44.0" y="366.0" fill="#898781" font-size="11" font-weight="400" text-anchor="end" style="font-variant-numeric: tabular-nums">0</text>
<line x1="52.0" x2="610.0" y1="326.7" y2="326.7" stroke="#e1e0d9" stroke-width="1"/>
<text x="44.0" y="330.7" fill="#898781" font-size="11" font-weight="400" text-anchor="end" style="font-variant-numeric: tabular-nums">100</text>
<line x1="52.0" x2="610.0" y1="291.3" y2="291.3" stroke="#e1e0d9" stroke-width="1"/>
<text x="44.0" y="295.3" fill="#898781" font-size="11" font-weight="400" text-anchor="end" style="font-variant-numeric: tabular-nums">200</text>
<line x1="52.0" x2="610.0" y1="256.0" y2="256.0" stroke="#e1e0d9" stroke-width="1"/>
<text x="44.0" y="260.0" fill="#898781" font-size="11" font-weight="400" text-anchor="end" style="font-variant-numeric: tabular-nums">300</text>
<text x="52.0" y="380.0" fill="#898781" font-size="11" font-weight="400" text-anchor="middle" style="font-variant-numeric: tabular-nums">Oct 3</text>
<text x="331.0" y="380.0" fill="#898781" font-size="11" font-weight="400" text-anchor="middle" style="font-variant-numeric: tabular-nums">Oct 5</text>
<text x="610.0" y="380.0" fill="#898781" font-size="11" font-weight="400" text-anchor="middle" style="font-variant-numeric: tabular-nums">Oct 6</text>
<polyline points="52.0,361.5 52.4,361.5 53.0,361.5 53.3,361.5 54.5,361.5 54.8,361.5 55.5,361.5 55.9,361.5 56.4,361.5 56.9,359.1 57.4,359.1 58.3,354.2 59.2,352.6 59.8,348.4 60.1,347.5 61.0,347.5 66.1,348.4 66.5,347.4 66.9,345.0 69.5,344.2 70.1,340.6 71.0,340.2 71.9,339.7 72.4,339.7 73.1,339.7 81.4,335.0 82.0,333.5 83.7,330.4 84.3,329.6 237.6,329.6 238.2,329.6 240.1,329.6 243.1,329.6 257.4,329.6 261.0,329.6 403.2,328.6 404.2,328.6 409.1,324.8 438.3,324.8 449.0,324.8 465.1,323.7 466.3,323.2 562.8,323.2 563.8,323.2 570.3,323.2 575.1,293.6 582.6,293.6 584.6,293.0 595.2,293.0 598.5,291.5 605.4,283.1 606.3,279.6 607.7,279.6 608.4,279.1 609.0,279.1 610.0,271.4" fill="none" stroke="#2a78d6" stroke-width="2" stroke-linejoin="round" stroke-linecap="round"/>
<circle cx="610.0" cy="271.4" r="4" fill="#2a78d6" stroke="#fcfcfb" stroke-width="2"/>
<text x="622.0" y="275.4" fill="#52514e" font-size="12" font-weight="400" text-anchor="start" style="font-variant-numeric: tabular-nums">256.4 KB</text>
<rect x="0" y="404" width="760" height="190" rx="8" fill="#fcfcfb"/>
<text x="16.0" y="428.0" fill="#0b0b0b" font-size="14" font-weight="600" text-anchor="start" style="font-variant-numeric: tabular-nums">Lines of Java</text>
<rect x="16" y="438" width="10" height="10" rx="2" fill="#2a78d6"/>
<text x="31.0" y="447.0" fill="#52514e" font-size="12" font-weight="400" text-anchor="start" style="font-variant-numeric: tabular-nums">Compiler</text>
<rect x="105" y="438" width="10" height="10" rx="2" fill="#eb6834"/>
<text x="120.0" y="447.0" fill="#52514e" font-size="12" font-weight="400" text-anchor="start" style="font-variant-numeric: tabular-nums">Kernel</text>
<line x1="52.0" x2="610.0" y1="564.0" y2="564.0" stroke="#c3c2b7" stroke-width="1"/>
<text x="44.0" y="568.0" fill="#898781" font-size="11" font-weight="400" text-anchor="end" style="font-variant-numeric: tabular-nums">0</text>
<line x1="52.0" x2="610.0" y1="511.0" y2="511.0" stroke="#e1e0d9" stroke-width="1"/>
<text x="44.0" y="515.0" fill="#898781" font-size="11" font-weight="400" text-anchor="end" style="font-variant-numeric: tabular-nums">5000</text>
<line x1="52.0" x2="610.0" y1="458.0" y2="458.0" stroke="#e1e0d9" stroke-width="1"/>
<text x="44.0" y="462.0" fill="#898781" font-size="11" font-weight="400" text-anchor="end" style="font-variant-numeric: tabular-nums">10000</text>
<text x="52.0" y="582.0" fill="#898781" font-size="11" font-weight="400" text-anchor="middle" style="font-variant-numeric: tabular-nums">Oct 3</text>
<text x="331.0" y="582.0" fill="#898781" font-size="11" font-weight="400" text-anchor="middle" style="font-variant-numeric: tabular-nums">Oct 5</text>
<text x="610.0" y="582.0" fill="#898781" font-size="11" font-weight="400" text-anchor="middle" style="font-variant-numeric: tabular-nums">Oct 6</text>
<polyline points="52.0,543.1 52.4,543.1 53.0,542.7 53.3,542.1 54.5,540.2 54.8,539.1 55.5,538.0 55.9,537.5 56.4,536.6 56.9,536.6 57.4,534.2 58.3,532.4 59.2,531.6 59.8,530.8 60.1,530.1 61.0,530.1 66.1,527.1 66.5,527.0 66.9,526.7 69.5,526.7 70.1,521.9 71.0,521.3 71.9,521.3 72.4,521.3 73.1,521.3 81.4,521.3 82.0,521.3 83.7,521.3 84.3,521.3 237.6,521.3 238.2,521.3 240.1,521.3 243.1,521.3 257.4,521.3 261.0,521.3 403.2,521.3 404.2,521.3 409.1,520.3 438.3,494.8 449.0,494.6 465.1,494.1 466.3,493.7 562.8,493.2 563.8,485.4 570.3,485.4 575.1,485.3 582.6,485.3 584.6,484.8 595.2,484.8 598.5,484.3 605.4,483.6 606.3,482.7 607.7,479.3 608.4,477.6 609.0,474.3 610.0,474.0" fill="none" stroke="#2a78d6" stroke-width="2" stroke-linejoin="round" stroke-linecap="round"/>
<circle cx="610.0" cy="474.0" r="4" fill="#2a78d6" stroke="#fcfcfb" stroke-width="2"/>
<polyline points="52.0,562.1 52.4,562.1 53.0,561.7 53.3,561.2 54.5,561.1 54.8,560.3 55.5,560.1 55.9,554.4 56.4,554.4 56.9,549.6 57.4,548.8 58.3,547.1 59.2,546.1 59.8,541.2 60.1,541.1 61.0,541.1 66.1,539.7 66.5,538.3 66.9,536.1 69.5,535.1 70.1,530.9 71.0,530.3 71.9,529.5 72.4,513.0 73.1,513.0 81.4,510.4 82.0,508.3 83.7,505.4 84.3,501.3 237.6,501.3 238.2,501.3 240.1,501.3 243.1,501.3 257.4,501.2 261.0,501.2 403.2,500.1 404.2,500.1 409.1,494.7 438.3,494.7 449.0,494.7 465.1,491.4 466.3,491.0 562.8,491.0 563.8,478.6 570.3,478.6 575.1,477.2 582.6,477.2 584.6,477.1 595.2,477.1 598.5,475.3 605.4,470.3 606.3,469.0 607.7,469.0 608.4,467.7 609.0,467.3 610.0,463.2" fill="none" stroke="#eb6834" stroke-width="2" stroke-linejoin="round" stroke-linecap="round"/>
<circle cx="610.0" cy="463.2" r="4" fill="#eb6834" stroke="#fcfcfb" stroke-width="2"/>
<text x="622.0" y="467.2" fill="#52514e" font-size="12" font-weight="400" text-anchor="start" style="font-variant-numeric: tabular-nums">Kernel 9505</text>
<text x="622.0" y="482.2" fill="#52514e" font-size="12" font-weight="400" text-anchor="start" style="font-variant-numeric: tabular-nums">Compiler 8487</text>
</svg>
