<svg xmlns="http://www.w3.org/2000/svg" width="760" height="594" viewBox="0 0 760 594" role="img" font-family="system-ui, -apple-system, 'Segoe UI', sans-serif">
<title>Duke progress</title>
<desc>Latest (0da581b): Conformance 263; Unit 159; Panic 16; .text 193.7 KB; Compiler 7425; Kernel 8193; </desc>
<rect x="0" y="0" width="760" height="190" rx="8" fill="#fcfcfb"/>
<text x="16.0" y="24.0" fill="#0b0b0b" font-size="14" font-weight="600" text-anchor="start" style="font-variant-numeric: tabular-nums">Tests in the suites</text>
<rect x="16" y="34" width="10" height="10" rx="2" fill="#2a78d6"/>
<text x="31.0" y="43.0" fill="#52514e" font-size="12" font-weight="400" text-anchor="start" style="font-variant-numeric: tabular-nums">Conformance</text>
<rect x="126" y="34" width="10" height="10" rx="2" fill="#eb6834"/>
<text x="141.0" y="43.0" fill="#52514e" font-size="12" font-weight="400" text-anchor="start" style="font-variant-numeric: tabular-nums">Unit</text>
<rect x="187" y="34" width="10" height="10" rx="2" fill="#1baf7a"/>
<text x="202.0" y="43.0" fill="#52514e" font-size="12" font-weight="400" text-anchor="start" style="font-variant-numeric: tabular-nums">Panic</text>
<line x1="52.0" x2="610.0" y1="160.0" y2="160.0" stroke="#c3c2b7" stroke-width="1"/>
<text x="44.0" y="164.0" fill="#898781" font-size="11" font-weight="400" text-anchor="end" style="font-variant-numeric: tabular-nums">0</text>
<line x1="52.0" x2="610.0" y1="124.7" y2="124.7" stroke="#e1e0d9" stroke-width="1"/>
<text x="44.0" y="128.7" fill="#898781" font-size="11" font-weight="400" text-anchor="end" style="font-variant-numeric: tabular-nums">100</text>
<line x1="52.0" x2="610.0" y1="89.3" y2="89.3" stroke="#e1e0d9" stroke-width="1"/>
<text x="44.0" y="93.3" fill="#898781" font-size="11" font-weight="400" text-anchor="end" style="font-variant-numeric: tabular-nums">200</text>
<line x1="52.0" x2="610.0" y1="54.0" y2="54.0" stroke="#e1e0d9" stroke-width="1"/>
<text x="44.0" y="58.0" fill="#898781" font-size="11" font-weight="400" text-anchor="end" style="font-variant-numeric: tabular-nums">300</text>
<text x="52.0" y="178.0" fill="#898781" font-size="11" font-weight="400" text-anchor="middle" style="font-variant-numeric: tabular-nums">Oct 3</text>
<text x="331.0" y="178.0" fill="#898781" font-size="11" font-weight="400" text-anchor="middle" style="font-variant-numeric: tabular-nums">Oct 5</text>
<text x="610.0" y="178.0" fill="#898781" font-size="11" font-weight="400" text-anchor="middle" style="font-variant-numeric: tabular-nums">Oct 6</text>
<polyline points="52.0,134.2 52.4,134.2 53.1,130.7 53.3,126.4 54.6,123.6 55.0,121.1 55.6,116.9 56.1,107.7 56.6,105.2 57.1,98.2 57.6,92.2 58.6,92.2 59.5,92.2 60.2,84.4 60.6,83.0 61.5,83.0 66.8,80.5 67.3,80.5 67.7,80.5 70.4,80.5 71.0,80.5 72.0,80.5 72.9,80.5 73.4,73.4 74.2,73.4 82.9,73.4 83.5,73.4 85.3,73.1 86.0,73.1 247.2,73.1 247.8,73.1 249.8,73.1 252.9,73.1 268.0,73.1 271.8,73.1 421.3,72.7 422.4,72.4 427.6,69.9 458.2,69.9 469.4,69.9 486.4,67.4 487.7,67.1 589.1,67.1 590.2,67.1 597.1,67.1 602.1,67.1 610.0,67.1" fill="none" stroke="#2a78d6" stroke-width="2" stroke-linejoin="round" stroke-linecap="round"/>
<circle cx="610.0" cy="67.1" r="4" fill="#2a78d6" stroke="#fcfcfb" stroke-width="2"/>
<polyline points="52.0,127.8 52.4,127.8 53.1,127.8 53.3,127.8 54.6,126.8 55.0,126.8 55.6,126.8 56.1,125.4 56.6,125.0 57.1,125.0 57.6,125.0 58.6,118.3 59.5,118.3 60.2,116.9 60.6,116.9 61.5,116.9 66.8,116.5 67.3,116.2 67.7,116.2 70.4,116.2 71.0,115.8 72.0,113.0 72.9,113.0 73.4,113.0 74.2,113.0 82.9,113.0 83.5,113.0 85.3,113.0 86.0,113.0 247.2,113.0 247.8,113.0 249.8,113.0 252.9,113.0 268.0,113.0 271.8,113.0 421.3,113.0 422.4,113.0 427.6,113.0 458.2,107.0 469.4,106.6 486.4,106.6 487.7,106.6 589.1,105.6 590.2,104.2 597.1,104.2 602.1,103.8 610.0,103.8" fill="none" stroke="#eb6834" stroke-width="2" stroke-linejoin="round" stroke-linecap="round"/>
<circle cx="610.0" cy="103.8" r="4" fill="#eb6834" stroke="#fcfcfb" stroke-width="2"/>
<polyline points="52.0,160.0 52.4,160.0 53.1,160.0 53.3,160.0 54.6,160.0 55.0,157.2 55.6,157.2 56.1,157.2 56.6,157.2 57.1,157.2 57.6,157.2 58.6,155.8 59.5,155.4 60.2,155.1 60.6,154.7 61.5,154.7 66.8,154.7 67.3,154.7 67.7,154.7 70.4,154.7 71.0,154.7 72.0,154.3 72.9,154.3 73.4,154.3 74.2,154.3 82.9,154.3 83.5,154.3 85.3,154.3 86.0,154.3 247.2,154.3 247.8,154.3 249.8,154.3 252.9,154.3 268.0,154.3 271.8,154.3 421.3,154.3 422.4,154.3 427.6,154.3 458.2,154.3 469.4,154.3 486.4,154.3 487.7,154.3 589.1,154.3 590.2,154.3 597.1,154.3 602.1,154.3 610.0,154.3" fill="none" stroke="#1baf7a" stroke-width="2" stroke-linejoin="round" stroke-linecap="round"/>
<circle cx="610.0" cy="154.3" r="4" fill="#1baf7a" stroke="#fcfcfb" stroke-width="2"/>
<text x="622.0" y="71.1" fill="#52514e" font-size="12" font-weight="400" text-anchor="start" style="font-variant-numeric: tabular-nums">Conformance 263</text>
<text x="622.0" y="107.8" fill="#52514e" font-size="12" font-weight="400" text-anchor="start" style="font-variant-numeric: tabular-nums">Unit 159</text>
<text x="622.0" y="158.3" fill="#52514e" font-size="12" font-weight="400" text-anchor="start" style="font-variant-numeric: tabular-nums">Panic 16</text>
<rect x="0" y="202" width="760" height="190" rx="8" fill="#fcfcfb"/>
<text x="16.0" y="226.0" fill="#0b0b0b" font-size="14" font-weight="600" text-anchor="start" style="font-variant-numeric: tabular-nums">Boot kernel code size (.text)</text>
<line x1="52.0" x2="610.0" y1="362.0" y2="362.0" stroke="#c3c2b7" stroke-width="1"/>
<text x="44.0" y="366.0" fill="#898781" font-size="11" font-weight="400" text-anchor="end" style="font-variant-numeric: tabular-nums">0</text>
<line x1="52.0" x2="610.0" y1="309.0" y2="309.0" stroke="#e1e0d9" stroke-width="1"/>
<text x="44.0" y="313.0" fill="#898781" font-size="11" font-weight="400" text-anchor="end" style="font-variant-numeric: tabular-nums">100</text>
<line x1="52.0" x2="610.0" y1="256.0" y2="256.0" stroke="#e1e0d9" stroke-width="1"/>
<text x="44.0" y="260.0" fill="#898781" font-size="11" font-weight="400" text-anchor="end" style="font-variant-numeric: tabular-nums">200</text>
<text x="52.0" y="380.0" fill="#898781" font-size="11" font-weight="400" text-anchor="middle" style="font-variant-numeric: tabular-nums">Oct 3</text>
<text x="331.0" y="380.0" fill="#898781" font-size="11" font-weight="400" text-anchor="middle" style="font-variant-numeric: tabular-nums">Oct 5</text>
<text x="610.0" y="380.0" fill="#898781" font-size="11" font-weight="400" text-anchor="middle" style="font-variant-numeric: tabular-nums">Oct 6</text>
<polyline points="52.0,361.2 52.4,361.2 53.1,361.2 53.3,361.2 54.6,361.2 55.0,361.2 55.6,361.2 56.1,361.2 56.6,361.2 57.1,357.6 57.6,357.6 58.6,350.3 59.5,348.0 60.2,341.6 60.6,340.2 61.5,340.2 66.8,341.6 67.3,340.1 67.7,336.6 70.4,335.3 71.0,330.0 72.0,329.4 72.9,328.5 73.4,328.5 74.2,328.5 82.9,321.4 83.5,319.3 85.3,314.6 86.0,313.3 247.2,313.3 247.8,313.3 249.8,313.3 252.9,313.3 268.0,313.3 271.8,313.3 421.3,311.9 422.4,311.9 427.6,306.2 458.2,306.2 469.4,306.2 486.4,304.6 487.7,303.9 589.1,303.9 590.2,303.9 597.1,303.9 602.1,259.4 610.0,259.4" fill="none" stroke="#2a78d6" stroke-width="2" stroke-linejoin="round" stroke-linecap="round"/>
<circle cx="610.0" cy="259.4" r="4" fill="#2a78d6" stroke="#fcfcfb" stroke-width="2"/>
<text x="622.0" y="263.4" fill="#52514e" font-size="12" font-weight="400" text-anchor="start" style="font-variant-numeric: tabular-nums">193.7 KB</text>
<rect x="0" y="404" width="760" height="190" rx="8" fill="#fcfcfb"/>
<text x="16.0" y="428.0" fill="#0b0b0b" font-size="14" font-weight="600" text-anchor="start" style="font-variant-numeric: tabular-nums">Lines of Java</text>
<rect x="16" y="438" width="10" height="10" rx="2" fill="#2a78d6"/>
<text x="31.0" y="447.0" fill="#52514e" font-size="12" font-weight="400" text-anchor="start" style="font-variant-numeric: tabular-nums">Compiler</text>
<rect x="105" y="438" width="10" height="10" rx="2" fill="#eb6834"/>
<text x="120.0" y="447.0" fill="#52514e" font-size="12" font-weight="400" text-anchor="start" style="font-variant-numeric: tabular-nums">Kernel</text>
<line x1="52.0" x2="610.0" y1="564.0" y2="564.0" stroke="#c3c2b7" stroke-width="1"/>
<text x="44.0" y="568.0" fill="#898781" font-size="11" font-weight="400" text-anchor="end" style="font-variant-numeric: tabular-nums">0</text>
<line x1="52.0" x2="610.0" y1="511.0" y2="511.0" stroke="#e1e0d9" stroke-width="1"/>
<text x="44.0" y="515.0" fill="#898781" font-size="11" font-weight="400" text-anchor="end" style="font-variant-numeric: tabular-nums">5000</text>
<line x1="52.0" x2="610.0" y1="458.0" y2="458.0" stroke="#e1e0d9" stroke-width="1"/>
<text x="44.0" y="462.0" fill="#898781" font-size="11" font-weight="400" text-anchor="end" style="font-variant-numeric: tabular-nums">10000</text>
<text x="52.0" y="582.0" fill="#898781" font-size="11" font-weight="400" text-anchor="middle" style="font-variant-numeric: tabular-nums">Oct 3</text>
<text x="331.0" y="582.0" fill="#898781" font-size="11" font-weight="400" text-anchor="middle" style="font-variant-numeric: tabular-nums">Oct 5</text>
<text x="610.0" y="582.0" fill="#898781" font-size="11" font-weight="400" text-anchor="middle" style="font-variant-numeric: tabular-nums">Oct 6</text>
<polyline points="52.0,543.1 52.4,543.1 53.1,542.7 53.3,542.1 54.6,540.2 55.0,539.1 55.6,538.0 56.1,537.5 56.6,536.6 57.1,536.6 57.6,534.2 58.6,532.4 59.5,531.6 60.2,530.8 60.6,530.1 61.5,530.1 66.8,527.1 67.3,527.0 67.7,526.7 70.4,526.7 71.0,521.9 72.0,521.3 72.9,521.3 73.4,521.3 74.2,521.3 82.9,521.3 83.5,521.3 85.3,521.3 86.0,521.3 247.2,521.3 247.8,521.3 249.8,521.3 252.9,521.3 268.0,521.3 271.8,521.3 421.3,521.3 422.4,521.3 427.6,520.3 458.2,494.8 469.4,494.6 486.4,494.1 487.7,493.7 589.1,493.2 590.2,485.4 597.1,485.4 602.1,485.3 610.0,485.3" fill="none" stroke="#2a78d6" stroke-width="2" stroke-linejoin="round" stroke-linecap="round"/>
<circle cx="610.0" cy="485.3" r="4" fill="#2a78d6" stroke="#fcfcfb" stroke-width="2"/>
<polyline points="52.0,562.1 52.4,562.1 53.1,561.7 53.3,561.2 54.6,561.1 55.0,560.3 55.6,560.1 56.1,554.4 56.6,554.4 57.1,549.6 57.6,548.8 58.6,547.1 59.5,546.1 60.2,541.2 60.6,541.1 61.5,541.1 66.8,539.7 67.3,538.3 67.7,536.1 70.4,535.1 71.0,530.9 72.0,530.3 72.9,529.5 73.4,513.0 74.2,513.0 82.9,510.4 83.5,508.3 85.3,505.4 86.0,501.3 247.2,501.3 247.8,501.3 249.8,501.3 252.9,501.3 268.0,501.2 271.8,501.2 421.3,500.1 422.4,500.1 427.6,494.7 458.2,494.7 469.4,494.7 486.4,491.4 487.7,491.0 589.1,491.0 590.2,478.6 597.1,478.6 602.1,477.2 610.0,477.2" fill="none" stroke="#eb6834" stroke-width="2" stroke-linejoin="round" stroke-linecap="round"/>
<circle cx="610.0" cy="477.2" r="4" fill="#eb6834" stroke="#fcfcfb" stroke-width="2"/>
<text x="622.0" y="481.2" fill="#52514e" font-size="12" font-weight="400" text-anchor="start" style="font-variant-numeric: tabular-nums">Kernel 8193</text>
<text x="622.0" y="496.2" fill="#52514e" font-size="12" font-weight="400" text-anchor="start" style="font-variant-numeric: tabular-nums">Compiler 7425</text>
</svg>
