<svg xmlns="http://www.w3.org/2000/svg" width="760" height="594" viewBox="0 0 760 594" role="img" font-family="system-ui, -apple-system, 'Segoe UI', sans-serif">
<title>Duke progress</title>
<desc>Latest (626a152): Conformance 263; Unit 159; Panic 16; .text 193.7 KB; Compiler 7425; Kernel 8193; </desc>
<rect x="0" y="0" width="760" height="190" rx="8" fill="#fcfcfb"/>
<text x="16.0" y="24.0" fill="#0b0b0b" font-size="14" font-weight="600" text-anchor="start" style="font-variant-numeric: tabular-nums">Tests in the suites</text>
<rect x="16" y="34" width="10" height="10" rx="2" fill="#2a78d6"/>
<text x="31.0" y="43.0" fill="#52514e" font-size="12" font-weight="400" text-anchor="start" style="font-variant-numeric: tabular-nums">Conformance</text>
<rect x="126" y="34" width="10" height="10" rx="2" fill="#eb6834"/>
<text x="141.0" y="43.0" fill="#52514e" font-size="12" font-weight="400" text-anchor="start" style="font-variant-numeric: tabular-nums">Unit</text>
<rect x="187" y="34" width="10" height="10" rx="2" fill="#1baf7a"/>
<text x="202.0" y="43.0" fill="#52514e" font-size="12" font-weight="400" text-anchor="start" style="font-variant-numeric: tabular-nums">Panic</text>
<line x1="52.0" x2="610.0" y1="160.0" y2="160.0" stroke="#c3c2b7" stroke-width="1"/>
<text x="44.0" y="164.0" fill="#898781" font-size="11" font-weight="400" text-anchor="end" style="font-variant-numeric: tabular-nums">0</text>
<line x1="52.0" x2="610.0" y1="124.7" y2="124.7" stroke="#e1e0d9" stroke-width="1"/>
<text x="44.0" y="128.7" fill="#898781" font-size="11" font-weight="400" text-anchor="end" style="font-variant-numeric: tabular-nums">100</text>
<line x1="52.0" x2="610.0" y1="89.3" y2="89.3" stroke="#e1e0d9" stroke-width="1"/>
<text x="44.0" y="93.3" fill="#898781" font-size="11" font-weight="400" text-anchor="end" style="font-variant-numeric: tabular-nums">200</text>
<line x1="52.0" x2="610.0" y1="54.0" y2="54.0" stroke="#e1e0d9" stroke-width="1"/>
<text x="44.0" y="58.0" fill="#898781" font-size="11" font-weight="400" text-anchor="end" style="font-variant-numeric: tabular-nums">300</text>
<text x="52.0" y="178.0" fill="#898781" font-size="11" font-weight="400" text-anchor="middle" style="font-variant-numeric: tabular-nums">Oct 3</text>
<text x="331.0" y="178.0" fill="#898781" font-size="11" font-weight="400" text-anchor="middle" style="font-variant-numeric: tabular-nums">Oct 5</text>
<text x="610.0" y="178.0" fill="#898781" font-size="11" font-weight="400" text-anchor="middle" style="font-variant-numeric: tabular-nums">Oct 6</text>
<polyline points="52.0,134.2 52.4,134.2 53.1,130.7 53.3,126.4 54.6,123.6 55.0,121.1 55.7,116.9 56.2,107.7 56.7,105.2 57.2,98.2 57.7,92.2 58.7,92.2 59.7,92.2 60.3,84.4 60.7,83.0 61.6,83.0 67.1,80.5 67.5,80.5 67.9,80.5 70.7,80.5 71.3,80.5 72.3,80.5 73.2,80.5 73.7,73.4 74.5,73.4 83.3,73.4 84.0,73.4 85.8,73.1 86.5,73.1 250.0,73.1 250.6,73.1 252.7,73.1 255.8,73.1 271.1,73.1 274.9,73.1 426.6,72.7 427.7,72.4 432.9,69.9 464.0,69.9 475.4,69.9 492.6,67.4 493.9,67.1 596.8,67.1 597.9,67.1 604.9,67.1 610.0,67.1" fill="none" stroke="#2a78d6" stroke-width="2" stroke-linejoin="round" stroke-linecap="round"/>
<circle cx="610.0" cy="67.1" r="4" fill="#2a78d6" stroke="#fcfcfb" stroke-width="2"/>
<polyline points="52.0,127.8 52.4,127.8 53.1,127.8 53.3,127.8 54.6,126.8 55.0,126.8 55.7,126.8 56.2,125.4 56.7,125.0 57.2,125.0 57.7,125.0 58.7,118.3 59.7,118.3 60.3,116.9 60.7,116.9 61.6,116.9 67.1,116.5 67.5,116.2 67.9,116.2 70.7,116.2 71.3,115.8 72.3,113.0 73.2,113.0 73.7,113.0 74.5,113.0 83.3,113.0 84.0,113.0 85.8,113.0 86.5,113.0 250.0,113.0 250.6,113.0 252.7,113.0 255.8,113.0 271.1,113.0 274.9,113.0 426.6,113.0 427.7,113.0 432.9,113.0 464.0,107.0 475.4,106.6 492.6,106.6 493.9,106.6 596.8,105.6 597.9,104.2 604.9,104.2 610.0,103.8" fill="none" stroke="#eb6834" stroke-width="2" stroke-linejoin="round" stroke-linecap="round"/>
<circle cx="610.0" cy="103.8" r="4" fill="#eb6834" stroke="#fcfcfb" stroke-width="2"/>
<polyline points="52.0,160.0 52.4,160.0 53.1,160.0 53.3,160.0 54.6,160.0 55.0,157.2 55.7,157.2 56.2,157.2 56.7,157.2 57.2,157.2 57.7,157.2 58.7,155.8 59.7,155.4 60.3,155.1 60.7,154.7 61.6,154.7 67.1,154.7 67.5,154.7 67.9,154.7 70.7,154.7 71.3,154.7 72.3,154.3 73.2,154.3 73.7,154.3 74.5,154.3 83.3,154.3 84.0,154.3 85.8,154.3 86.5,154.3 250.0,154.3 250.6,154.3 252.7,154.3 255.8,154.3 271.1,154.3 274.9,154.3 426.6,154.3 427.7,154.3 432.9,154.3 464.0,154.3 475.4,154.3 492.6,154.3 493.9,154.3 596.8,154.3 597.9,154.3 604.9,154.3 610.0,154.3" fill="none" stroke="#1baf7a" stroke-width="2" stroke-linejoin="round" stroke-linecap="round"/>
<circle cx="610.0" cy="154.3" r="4" fill="#1baf7a" stroke="#fcfcfb" stroke-width="2"/>
<text x="622.0" y="71.1" fill="#52514e" font-size="12" font-weight="400" text-anchor="start" style="font-variant-numeric: tabular-nums">Conformance 263</text>
<text x="622.0" y="107.8" fill="#52514e" font-size="12" font-weight="400" text-anchor="start" style="font-variant-numeric: tabular-nums">Unit 159</text>
<text x="622.0" y="158.3" fill="#52514e" font-size="12" font-weight="400" text-anchor="start" style="font-variant-numeric: tabular-nums">Panic 16</text>
<rect x="0" y="202" width="760" height="190" rx="8" fill="#fcfcfb"/>
<text x="16.0" y="226.0" fill="#0b0b0b" font-size="14" font-weight="600" text-anchor="start" style="font-variant-numeric: tabular-nums">Boot kernel code size (.text)</text>
<line x1="52.0" x2="610.0" y1="362.0" y2="362.0" stroke="#c3c2b7" stroke-width="1"/>
<text x="44.0" y="366.0" fill="#898781" font-size="11" font-weight="400" text-anchor="end" style="font-variant-numeric: tabular-nums">0</text>
<line x1="52.0" x2="610.0" y1="309.0" y2="309.0" stroke="#e1e0d9" stroke-width="1"/>
<text x="44.0" y="313.0" fill="#898781" font-size="11" font-weight="400" text-anchor="end" style="font-variant-numeric: tabular-nums">100</text>
<line x1="52.0" x2="610.0" y1="256.0" y2="256.0" stroke="#e1e0d9" stroke-width="1"/>
<text x="44.0" y="260.0" fill="#898781" font-size="11" font-weight="400" text-anchor="end" style="font-variant-numeric: tabular-nums">200</text>
<text x="52.0" y="380.0" fill="#898781" font-size="11" font-weight="400" text-anchor="middle" style="font-variant-numeric: tabular-nums">Oct 3</text>
<text x="331.0" y="380.0" fill="#898781" font-size="11" font-weight="400" text-anchor="middle" style="font-variant-numeric: tabular-nums">Oct 5</text>
<text x="610.0" y="380.0" fill="#898781" font-size="11" font-weight="400" text-anchor="middle" style="font-variant-numeric: tabular-nums">Oct 6</text>
<polyline points="52.0,361.2 52.4,361.2 53.1,361.2 53.3,361.2 54.6,361.2 55.0,361.2 55.7,361.2 56.2,361.2 56.7,361.2 57.2,357.6 57.7,357.6 58.7,350.3 59.7,348.0 60.3,341.6 60.7,340.2 61.6,340.2 67.1,341.6 67.5,340.1 67.9,336.6 70.7,335.3 71.3,330.0 72.3,329.4 73.2,328.5 73.7,328.5 74.5,328.5 83.3,321.4 84.0,319.3 85.8,314.6 86.5,313.3 250.0,313.3 250.6,313.3 252.7,313.3 255.8,313.3 271.1,313.3 274.9,313.3 426.6,311.9 427.7,311.9 432.9,306.2 464.0,306.2 475.4,306.2 492.6,304.6 493.9,303.9 596.8,303.9 597.9,303.9 604.9,303.9 610.0,259.4" fill="none" stroke="#2a78d6" stroke-width="2" stroke-linejoin="round" stroke-linecap="round"/>
<circle cx="610.0" cy="259.4" r="4" fill="#2a78d6" stroke="#fcfcfb" stroke-width="2"/>
<text x="622.0" y="263.4" fill="#52514e" font-size="12" font-weight="400" text-anchor="start" style="font-variant-numeric: tabular-nums">193.7 KB</text>
<rect x="0" y="404" width="760" height="190" rx="8" fill="#fcfcfb"/>
<text x="16.0" y="428.0" fill="#0b0b0b" font-size="14" font-weight="600" text-anchor="start" style="font-variant-numeric: tabular-nums">Lines of Java</text>
<rect x="16" y="438" width="10" height="10" rx="2" fill="#2a78d6"/>
<text x="31.0" y="447.0" fill="#52514e" font-size="12" font-weight="400" text-anchor="start" style="font-variant-numeric: tabular-nums">Compiler</text>
<rect x="105" y="438" width="10" height="10" rx="2" fill="#eb6834"/>
<text x="120.0" y="447.0" fill="#52514e" font-size="12" font-weight="400" text-anchor="start" style="font-variant-numeric: tabular-nums">Kernel</text>
<line x1="52.0" x2="610.0" y1="564.0" y2="564.0" stroke="#c3c2b7" stroke-width="1"/>
<text x="44.0" y="568.0" fill="#898781" font-size="11" font-weight="400" text-anchor="end" style="font-variant-numeric: tabular-nums">0</text>
<line x1="52.0" x2="610.0" y1="511.0" y2="511.0" stroke="#e1e0d9" stroke-width="1"/>
<text x="44.0" y="515.0" fill="#898781" font-size="11" font-weight="400" text-anchor="end" style="font-variant-numeric: tabular-nums">5000</text>
<line x1="52.0" x2="610.0" y1="458.0" y2="458.0" stroke="#e1e0d9" stroke-width="1"/>
<text x="44.0" y="462.0" fill="#898781" font-size="11" font-weight="400" text-anchor="end" style="font-variant-numeric: tabular-nums">10000</text>
<text x="52.0" y="582.0" fill="#898781" font-size="11" font-weight="400" text-anchor="middle" style="font-variant-numeric: tabular-nums">Oct 3</text>
<text x="331.0" y="582.0" fill="#898781" font-size="11" font-weight="400" text-anchor="middle" style="font-variant-numeric: tabular-nums">Oct 5</text>
<text x="610.0" y="582.0" fill="#898781" font-size="11" font-weight="400" text-anchor="middle" style="font-variant-numeric: tabular-nums">Oct 6</text>
<polyline points="52.0,543.1 52.4,543.1 53.1,542.7 53.3,542.1 54.6,540.2 55.0,539.1 55.7,538.0 56.2,537.5 56.7,536.6 57.2,536.6 57.7,534.2 58.7,532.4 59.7,531.6 60.3,530.8 60.7,530.1 61.6,530.1 67.1,527.1 67.5,527.0 67.9,526.7 70.7,526.7 71.3,521.9 72.3,521.3 73.2,521.3 73.7,521.3 74.5,521.3 83.3,521.3 84.0,521.3 85.8,521.3 86.5,521.3 250.0,521.3 250.6,521.3 252.7,521.3 255.8,521.3 271.1,521.3 274.9,521.3 426.6,521.3 427.7,521.3 432.9,520.3 464.0,494.8 475.4,494.6 492.6,494.1 493.9,493.7 596.8,493.2 597.9,485.4 604.9,485.4 610.0,485.3" fill="none" stroke="#2a78d6" stroke-width="2" stroke-linejoin="round" stroke-linecap="round"/>
<circle cx="610.0" cy="485.3" r="4" fill="#2a78d6" stroke="#fcfcfb" stroke-width="2"/>
<polyline points="52.0,562.1 52.4,562.1 53.1,561.7 53.3,561.2 54.6,561.1 55.0,560.3 55.7,560.1 56.2,554.4 56.7,554.4 57.2,549.6 57.7,548.8 58.7,547.1 59.7,546.1 60.3,541.2 60.7,541.1 61.6,541.1 67.1,539.7 67.5,538.3 67.9,536.1 70.7,535.1 71.3,530.9 72.3,530.3 73.2,529.5 73.7,513.0 74.5,513.0 83.3,510.4 84.0,508.3 85.8,505.4 86.5,501.3 250.0,501.3 250.6,501.3 252.7,501.3 255.8,501.3 271.1,501.2 274.9,501.2 426.6,500.1 427.7,500.1 432.9,494.7 464.0,494.7 475.4,494.7 492.6,491.4 493.9,491.0 596.8,491.0 597.9,478.6 604.9,478.6 610.0,477.2" fill="none" stroke="#eb6834" stroke-width="2" stroke-linejoin="round" stroke-linecap="round"/>
<circle cx="610.0" cy="477.2" r="4" fill="#eb6834" stroke="#fcfcfb" stroke-width="2"/>
<text x="622.0" y="481.2" fill="#52514e" font-size="12" font-weight="400" text-anchor="start" style="font-variant-numeric: tabular-nums">Kernel 8193</text>
<text x="622.0" y="496.2" fill="#52514e" font-size="12" font-weight="400" text-anchor="start" style="font-variant-numeric: tabular-nums">Compiler 7425</text>
</svg>
