<svg xmlns="http://www.w3.org/2000/svg" width="760" height="594" viewBox="0 0 760 594" role="img" font-family="system-ui, -apple-system, 'Segoe UI', sans-serif">
<title>Duke progress</title>
<desc>Latest (14ed086): Conformance 263; Unit 151; Panic 16; .text 109.7 KB; Compiler 6630; Kernel 6887; </desc>
<rect x="0" y="0" width="760" height="190" rx="8" fill="#1a1a19"/>
<text x="16.0" y="24.0" fill="#ffffff" font-size="14" font-weight="600" text-anchor="start" style="font-variant-numeric: tabular-nums">Tests in the suites</text>
<rect x="16" y="34" width="10" height="10" rx="2" fill="#3987e5"/>
<text x="31.0" y="43.0" fill="#c3c2b7" font-size="12" font-weight="400" text-anchor="start" style="font-variant-numeric: tabular-nums">Conformance</text>
<rect x="126" y="34" width="10" height="10" rx="2" fill="#d95926"/>
<text x="141.0" y="43.0" fill="#c3c2b7" font-size="12" font-weight="400" text-anchor="start" style="font-variant-numeric: tabular-nums">Unit</text>
<rect x="187" y="34" width="10" height="10" rx="2" fill="#199e70"/>
<text x="202.0" y="43.0" fill="#c3c2b7" font-size="12" font-weight="400" text-anchor="start" style="font-variant-numeric: tabular-nums">Panic</text>
<line x1="52.0" x2="610.0" y1="160.0" y2="160.0" stroke="#383835" stroke-width="1"/>
<text x="44.0" y="164.0" fill="#898781" font-size="11" font-weight="400" text-anchor="end" style="font-variant-numeric: tabular-nums">0</text>
<line x1="52.0" x2="610.0" y1="124.7" y2="124.7" stroke="#2c2c2a" stroke-width="1"/>
<text x="44.0" y="128.7" fill="#898781" font-size="11" font-weight="400" text-anchor="end" style="font-variant-numeric: tabular-nums">100</text>
<line x1="52.0" x2="610.0" y1="89.3" y2="89.3" stroke="#2c2c2a" stroke-width="1"/>
<text x="44.0" y="93.3" fill="#898781" font-size="11" font-weight="400" text-anchor="end" style="font-variant-numeric: tabular-nums">200</text>
<line x1="52.0" x2="610.0" y1="54.0" y2="54.0" stroke="#2c2c2a" stroke-width="1"/>
<text x="44.0" y="58.0" fill="#898781" font-size="11" font-weight="400" text-anchor="end" style="font-variant-numeric: tabular-nums">300</text>
<text x="52.0" y="178.0" fill="#898781" font-size="11" font-weight="400" text-anchor="middle" style="font-variant-numeric: tabular-nums">Oct 3</text>
<text x="331.0" y="178.0" fill="#898781" font-size="11" font-weight="400" text-anchor="middle" style="font-variant-numeric: tabular-nums">Oct 4</text>
<text x="610.0" y="178.0" fill="#898781" font-size="11" font-weight="400" text-anchor="middle" style="font-variant-numeric: tabular-nums">Oct 5</text>
<polyline points="52.0,134.2 52.5,134.2 53.4,130.7 53.7,126.4 55.3,123.6 55.8,121.1 56.7,116.9 57.3,107.7 57.9,105.2 58.6,98.2 59.2,92.2 60.4,92.2 61.7,92.2 62.5,84.4 63.0,83.0 64.2,83.0 71.0,80.5 71.6,80.5 72.1,80.5 75.6,80.5 76.3,80.5 77.6,80.5 78.8,80.5 79.4,73.4 80.4,73.4 91.6,73.4 92.3,73.4 94.6,73.1 95.5,73.1 302.0,73.1 302.8,73.1 305.4,73.1 309.3,73.1 328.6,73.1 333.5,73.1 525.0,72.7 526.4,72.4 533.0,69.9 572.2,69.9 586.6,69.9 608.4,67.4 610.0,67.1" fill="none" stroke="#3987e5" stroke-width="2" stroke-linejoin="round" stroke-linecap="round"/>
<circle cx="610.0" cy="67.1" r="4" fill="#3987e5" stroke="#1a1a19" stroke-width="2"/>
<polyline points="52.0,127.8 52.5,127.8 53.4,127.8 53.7,127.8 55.3,126.8 55.8,126.8 56.7,126.8 57.3,125.4 57.9,125.0 58.6,125.0 59.2,125.0 60.4,118.3 61.7,118.3 62.5,116.9 63.0,116.9 64.2,116.9 71.0,116.5 71.6,116.2 72.1,116.2 75.6,116.2 76.3,115.8 77.6,113.0 78.8,113.0 79.4,113.0 80.4,113.0 91.6,113.0 92.3,113.0 94.6,113.0 95.5,113.0 302.0,113.0 302.8,113.0 305.4,113.0 309.3,113.0 328.6,113.0 333.5,113.0 525.0,113.0 526.4,113.0 533.0,113.0 572.2,107.0 586.6,106.6 608.4,106.6 610.0,106.6" fill="none" stroke="#d95926" stroke-width="2" stroke-linejoin="round" stroke-linecap="round"/>
<circle cx="610.0" cy="106.6" r="4" fill="#d95926" stroke="#1a1a19" stroke-width="2"/>
<polyline points="52.0,160.0 52.5,160.0 53.4,160.0 53.7,160.0 55.3,160.0 55.8,157.2 56.7,157.2 57.3,157.2 57.9,157.2 58.6,157.2 59.2,157.2 60.4,155.8 61.7,155.4 62.5,155.1 63.0,154.7 64.2,154.7 71.0,154.7 71.6,154.7 72.1,154.7 75.6,154.7 76.3,154.7 77.6,154.3 78.8,154.3 79.4,154.3 80.4,154.3 91.6,154.3 92.3,154.3 94.6,154.3 95.5,154.3 302.0,154.3 302.8,154.3 305.4,154.3 309.3,154.3 328.6,154.3 333.5,154.3 525.0,154.3 526.4,154.3 533.0,154.3 572.2,154.3 586.6,154.3 608.4,154.3 610.0,154.3" fill="none" stroke="#199e70" stroke-width="2" stroke-linejoin="round" stroke-linecap="round"/>
<circle cx="610.0" cy="154.3" r="4" fill="#199e70" stroke="#1a1a19" stroke-width="2"/>
<text x="622.0" y="71.1" fill="#c3c2b7" font-size="12" font-weight="400" text-anchor="start" style="font-variant-numeric: tabular-nums">Conformance 263</text>
<text x="622.0" y="110.6" fill="#c3c2b7" font-size="12" font-weight="400" text-anchor="start" style="font-variant-numeric: tabular-nums">Unit 151</text>
<text x="622.0" y="158.3" fill="#c3c2b7" font-size="12" font-weight="400" text-anchor="start" style="font-variant-numeric: tabular-nums">Panic 16</text>
<rect x="0" y="202" width="760" height="190" rx="8" fill="#1a1a19"/>
<text x="16.0" y="226.0" fill="#ffffff" font-size="14" font-weight="600" text-anchor="start" style="font-variant-numeric: tabular-nums">Boot kernel code size (.text)</text>
<line x1="52.0" x2="610.0" y1="362.0" y2="362.0" stroke="#383835" stroke-width="1"/>
<text x="44.0" y="366.0" fill="#898781" font-size="11" font-weight="400" text-anchor="end" style="font-variant-numeric: tabular-nums">0</text>
<line x1="52.0" x2="610.0" y1="326.7" y2="326.7" stroke="#2c2c2a" stroke-width="1"/>
<text x="44.0" y="330.7" fill="#898781" font-size="11" font-weight="400" text-anchor="end" style="font-variant-numeric: tabular-nums">50</text>
<line x1="52.0" x2="610.0" y1="291.3" y2="291.3" stroke="#2c2c2a" stroke-width="1"/>
<text x="44.0" y="295.3" fill="#898781" font-size="11" font-weight="400" text-anchor="end" style="font-variant-numeric: tabular-nums">100</text>
<line x1="52.0" x2="610.0" y1="256.0" y2="256.0" stroke="#2c2c2a" stroke-width="1"/>
<text x="44.0" y="260.0" fill="#898781" font-size="11" font-weight="400" text-anchor="end" style="font-variant-numeric: tabular-nums">150</text>
<text x="52.0" y="380.0" fill="#898781" font-size="11" font-weight="400" text-anchor="middle" style="font-variant-numeric: tabular-nums">Oct 3</text>
<text x="331.0" y="380.0" fill="#898781" font-size="11" font-weight="400" text-anchor="middle" style="font-variant-numeric: tabular-nums">Oct 4</text>
<text x="610.0" y="380.0" fill="#898781" font-size="11" font-weight="400" text-anchor="middle" style="font-variant-numeric: tabular-nums">Oct 5</text>
<polyline points="52.0,361.0 52.5,361.0 53.4,361.0 53.7,361.0 55.3,361.0 55.8,361.0 56.7,361.0 57.3,361.0 57.9,361.0 58.6,356.2 59.2,356.2 60.4,346.3 61.7,343.3 62.5,334.9 63.0,332.9 64.2,332.9 71.0,334.8 71.6,332.8 72.1,328.1 75.6,326.5 76.3,319.3 77.6,318.5 78.8,317.3 79.4,317.3 80.4,317.3 91.6,307.9 92.3,305.1 94.6,298.8 95.5,297.1 302.0,297.1 302.8,297.1 305.4,297.1 309.3,297.1 328.6,297.1 333.5,297.1 525.0,295.2 526.4,295.2 533.0,287.5 572.2,287.5 586.6,287.5 608.4,285.5 610.0,284.5" fill="none" stroke="#3987e5" stroke-width="2" stroke-linejoin="round" stroke-linecap="round"/>
<circle cx="610.0" cy="284.5" r="4" fill="#3987e5" stroke="#1a1a19" stroke-width="2"/>
<text x="622.0" y="288.5" fill="#c3c2b7" font-size="12" font-weight="400" text-anchor="start" style="font-variant-numeric: tabular-nums">109.7 KB</text>
<rect x="0" y="404" width="760" height="190" rx="8" fill="#1a1a19"/>
<text x="16.0" y="428.0" fill="#ffffff" font-size="14" font-weight="600" text-anchor="start" style="font-variant-numeric: tabular-nums">Lines of Java</text>
<rect x="16" y="438" width="10" height="10" rx="2" fill="#3987e5"/>
<text x="31.0" y="447.0" fill="#c3c2b7" font-size="12" font-weight="400" text-anchor="start" style="font-variant-numeric: tabular-nums">Compiler</text>
<rect x="105" y="438" width="10" height="10" rx="2" fill="#d95926"/>
<text x="120.0" y="447.0" fill="#c3c2b7" font-size="12" font-weight="400" text-anchor="start" style="font-variant-numeric: tabular-nums">Kernel</text>
<line x1="52.0" x2="610.0" y1="564.0" y2="564.0" stroke="#383835" stroke-width="1"/>
<text x="44.0" y="568.0" fill="#898781" font-size="11" font-weight="400" text-anchor="end" style="font-variant-numeric: tabular-nums">0</text>
<line x1="52.0" x2="610.0" y1="528.7" y2="528.7" stroke="#2c2c2a" stroke-width="1"/>
<text x="44.0" y="532.7" fill="#898781" font-size="11" font-weight="400" text-anchor="end" style="font-variant-numeric: tabular-nums">2500</text>
<line x1="52.0" x2="610.0" y1="493.3" y2="493.3" stroke="#2c2c2a" stroke-width="1"/>
<text x="44.0" y="497.3" fill="#898781" font-size="11" font-weight="400" text-anchor="end" style="font-variant-numeric: tabular-nums">5000</text>
<line x1="52.0" x2="610.0" y1="458.0" y2="458.0" stroke="#2c2c2a" stroke-width="1"/>
<text x="44.0" y="462.0" fill="#898781" font-size="11" font-weight="400" text-anchor="end" style="font-variant-numeric: tabular-nums">7500</text>
<text x="52.0" y="582.0" fill="#898781" font-size="11" font-weight="400" text-anchor="middle" style="font-variant-numeric: tabular-nums">Oct 3</text>
<text x="331.0" y="582.0" fill="#898781" font-size="11" font-weight="400" text-anchor="middle" style="font-variant-numeric: tabular-nums">Oct 4</text>
<text x="610.0" y="582.0" fill="#898781" font-size="11" font-weight="400" text-anchor="middle" style="font-variant-numeric: tabular-nums">Oct 5</text>
<polyline points="52.0,536.1 52.5,536.1 53.4,535.6 53.7,534.8 55.3,532.3 55.8,530.8 56.7,529.3 57.3,528.7 57.9,527.5 58.6,527.4 59.2,524.2 60.4,521.8 61.7,520.8 62.5,519.7 63.0,518.8 64.2,518.8 71.0,514.8 71.6,514.7 72.1,514.3 75.6,514.3 76.3,507.9 77.6,507.0 78.8,507.0 79.4,507.0 80.4,507.0 91.6,507.0 92.3,507.0 94.6,507.0 95.5,507.0 302.0,507.0 302.8,507.0 305.4,507.0 309.3,507.0 328.6,507.0 333.5,507.0 525.0,507.0 526.4,507.0 533.0,505.7 572.2,471.7 586.6,471.5 608.4,470.8 610.0,470.3" fill="none" stroke="#3987e5" stroke-width="2" stroke-linejoin="round" stroke-linecap="round"/>
<circle cx="610.0" cy="470.3" r="4" fill="#3987e5" stroke="#1a1a19" stroke-width="2"/>
<polyline points="52.0,561.5 52.5,561.5 53.4,560.9 53.7,560.3 55.3,560.2 55.8,559.1 56.7,558.8 57.3,551.2 57.9,551.2 58.6,544.9 59.2,543.8 60.4,541.5 61.7,540.1 62.5,533.6 63.0,533.5 64.2,533.5 71.0,531.6 71.6,529.7 72.1,526.7 75.6,525.5 76.3,519.8 77.6,519.1 78.8,518.0 79.4,496.1 80.4,496.1 91.6,492.5 92.3,489.8 94.6,485.8 95.5,480.4 302.0,480.4 302.8,480.4 305.4,480.4 309.3,480.4 328.6,480.2 333.5,480.2 525.0,478.9 526.4,478.9 533.0,471.6 572.2,471.6 586.6,471.6 608.4,467.2 610.0,466.7" fill="none" stroke="#d95926" stroke-width="2" stroke-linejoin="round" stroke-linecap="round"/>
<circle cx="610.0" cy="466.7" r="4" fill="#d95926" stroke="#1a1a19" stroke-width="2"/>
<text x="622.0" y="470.7" fill="#c3c2b7" font-size="12" font-weight="400" text-anchor="start" style="font-variant-numeric: tabular-nums">Kernel 6887</text>
<text x="622.0" y="485.7" fill="#c3c2b7" font-size="12" font-weight="400" text-anchor="start" style="font-variant-numeric: tabular-nums">Compiler 6630</text>
</svg>
