<svg xmlns="http://www.w3.org/2000/svg" width="760" height="594" viewBox="0 0 760 594" role="img" font-family="system-ui, -apple-system, 'Segoe UI', sans-serif">
<title>Duke progress</title>
<desc>Latest (4641176): Conformance 255; Unit 151; Panic 16; .text 105.4 KB; Compiler 6544; Kernel 6537; </desc>
<rect x="0" y="0" width="760" height="190" rx="8" fill="#1a1a19"/>
<text x="16.0" y="24.0" fill="#ffffff" font-size="14" font-weight="600" text-anchor="start" style="font-variant-numeric: tabular-nums">Tests in the suites</text>
<rect x="16" y="34" width="10" height="10" rx="2" fill="#3987e5"/>
<text x="31.0" y="43.0" fill="#c3c2b7" font-size="12" font-weight="400" text-anchor="start" style="font-variant-numeric: tabular-nums">Conformance</text>
<rect x="126" y="34" width="10" height="10" rx="2" fill="#d95926"/>
<text x="141.0" y="43.0" fill="#c3c2b7" font-size="12" font-weight="400" text-anchor="start" style="font-variant-numeric: tabular-nums">Unit</text>
<rect x="187" y="34" width="10" height="10" rx="2" fill="#199e70"/>
<text x="202.0" y="43.0" fill="#c3c2b7" font-size="12" font-weight="400" text-anchor="start" style="font-variant-numeric: tabular-nums">Panic</text>
<line x1="52.0" x2="610.0" y1="160.0" y2="160.0" stroke="#383835" stroke-width="1"/>
<text x="44.0" y="164.0" fill="#898781" font-size="11" font-weight="400" text-anchor="end" style="font-variant-numeric: tabular-nums">0</text>
<line x1="52.0" x2="610.0" y1="124.7" y2="124.7" stroke="#2c2c2a" stroke-width="1"/>
<text x="44.0" y="128.7" fill="#898781" font-size="11" font-weight="400" text-anchor="end" style="font-variant-numeric: tabular-nums">100</text>
<line x1="52.0" x2="610.0" y1="89.3" y2="89.3" stroke="#2c2c2a" stroke-width="1"/>
<text x="44.0" y="93.3" fill="#898781" font-size="11" font-weight="400" text-anchor="end" style="font-variant-numeric: tabular-nums">200</text>
<line x1="52.0" x2="610.0" y1="54.0" y2="54.0" stroke="#2c2c2a" stroke-width="1"/>
<text x="44.0" y="58.0" fill="#898781" font-size="11" font-weight="400" text-anchor="end" style="font-variant-numeric: tabular-nums">300</text>
<text x="52.0" y="178.0" fill="#898781" font-size="11" font-weight="400" text-anchor="middle" style="font-variant-numeric: tabular-nums">Oct 3</text>
<text x="331.0" y="178.0" fill="#898781" font-size="11" font-weight="400" text-anchor="middle" style="font-variant-numeric: tabular-nums">Oct 4</text>
<text x="610.0" y="178.0" fill="#898781" font-size="11" font-weight="400" text-anchor="middle" style="font-variant-numeric: tabular-nums">Oct 5</text>
<polyline points="52.0,134.2 52.6,134.2 53.5,130.7 53.8,126.4 55.5,123.6 55.9,121.1 56.9,116.9 57.5,107.7 58.2,105.2 58.9,98.2 59.5,92.2 60.8,92.2 62.1,92.2 63.0,84.4 63.5,83.0 64.7,83.0 71.8,80.5 72.4,80.5 72.9,80.5 76.6,80.5 77.4,80.5 78.7,80.5 80.0,80.5 80.6,73.4 81.6,73.4 93.3,73.4 94.1,73.4 96.5,73.1 97.4,73.1 312.9,73.1 313.8,73.1 316.4,73.1 320.6,73.1 340.7,73.1 345.8,73.1 545.7,72.7 547.1,72.4 554.0,69.9 595.0,69.9 610.0,69.9" fill="none" stroke="#3987e5" stroke-width="2" stroke-linejoin="round" stroke-linecap="round"/>
<circle cx="610.0" cy="69.9" r="4" fill="#3987e5" stroke="#1a1a19" stroke-width="2"/>
<polyline points="52.0,127.8 52.6,127.8 53.5,127.8 53.8,127.8 55.5,126.8 55.9,126.8 56.9,126.8 57.5,125.4 58.2,125.0 58.9,125.0 59.5,125.0 60.8,118.3 62.1,118.3 63.0,116.9 63.5,116.9 64.7,116.9 71.8,116.5 72.4,116.2 72.9,116.2 76.6,116.2 77.4,115.8 78.7,113.0 80.0,113.0 80.6,113.0 81.6,113.0 93.3,113.0 94.1,113.0 96.5,113.0 97.4,113.0 312.9,113.0 313.8,113.0 316.4,113.0 320.6,113.0 340.7,113.0 345.8,113.0 545.7,113.0 547.1,113.0 554.0,113.0 595.0,107.0 610.0,106.6" fill="none" stroke="#d95926" stroke-width="2" stroke-linejoin="round" stroke-linecap="round"/>
<circle cx="610.0" cy="106.6" r="4" fill="#d95926" stroke="#1a1a19" stroke-width="2"/>
<polyline points="52.0,160.0 52.6,160.0 53.5,160.0 53.8,160.0 55.5,160.0 55.9,157.2 56.9,157.2 57.5,157.2 58.2,157.2 58.9,157.2 59.5,157.2 60.8,155.8 62.1,155.4 63.0,155.1 63.5,154.7 64.7,154.7 71.8,154.7 72.4,154.7 72.9,154.7 76.6,154.7 77.4,154.7 78.7,154.3 80.0,154.3 80.6,154.3 81.6,154.3 93.3,154.3 94.1,154.3 96.5,154.3 97.4,154.3 312.9,154.3 313.8,154.3 316.4,154.3 320.6,154.3 340.7,154.3 345.8,154.3 545.7,154.3 547.1,154.3 554.0,154.3 595.0,154.3 610.0,154.3" fill="none" stroke="#199e70" stroke-width="2" stroke-linejoin="round" stroke-linecap="round"/>
<circle cx="610.0" cy="154.3" r="4" fill="#199e70" stroke="#1a1a19" stroke-width="2"/>
<text x="622.0" y="73.9" fill="#c3c2b7" font-size="12" font-weight="400" text-anchor="start" style="font-variant-numeric: tabular-nums">Conformance 255</text>
<text x="622.0" y="110.6" fill="#c3c2b7" font-size="12" font-weight="400" text-anchor="start" style="font-variant-numeric: tabular-nums">Unit 151</text>
<text x="622.0" y="158.3" fill="#c3c2b7" font-size="12" font-weight="400" text-anchor="start" style="font-variant-numeric: tabular-nums">Panic 16</text>
<rect x="0" y="202" width="760" height="190" rx="8" fill="#1a1a19"/>
<text x="16.0" y="226.0" fill="#ffffff" font-size="14" font-weight="600" text-anchor="start" style="font-variant-numeric: tabular-nums">Boot kernel code size (.text)</text>
<line x1="52.0" x2="610.0" y1="362.0" y2="362.0" stroke="#383835" stroke-width="1"/>
<text x="44.0" y="366.0" fill="#898781" font-size="11" font-weight="400" text-anchor="end" style="font-variant-numeric: tabular-nums">0</text>
<line x1="52.0" x2="610.0" y1="326.7" y2="326.7" stroke="#2c2c2a" stroke-width="1"/>
<text x="44.0" y="330.7" fill="#898781" font-size="11" font-weight="400" text-anchor="end" style="font-variant-numeric: tabular-nums">50</text>
<line x1="52.0" x2="610.0" y1="291.3" y2="291.3" stroke="#2c2c2a" stroke-width="1"/>
<text x="44.0" y="295.3" fill="#898781" font-size="11" font-weight="400" text-anchor="end" style="font-variant-numeric: tabular-nums">100</text>
<line x1="52.0" x2="610.0" y1="256.0" y2="256.0" stroke="#2c2c2a" stroke-width="1"/>
<text x="44.0" y="260.0" fill="#898781" font-size="11" font-weight="400" text-anchor="end" style="font-variant-numeric: tabular-nums">150</text>
<text x="52.0" y="380.0" fill="#898781" font-size="11" font-weight="400" text-anchor="middle" style="font-variant-numeric: tabular-nums">Oct 3</text>
<text x="331.0" y="380.0" fill="#898781" font-size="11" font-weight="400" text-anchor="middle" style="font-variant-numeric: tabular-nums">Oct 4</text>
<text x="610.0" y="380.0" fill="#898781" font-size="11" font-weight="400" text-anchor="middle" style="font-variant-numeric: tabular-nums">Oct 5</text>
<polyline points="52.0,361.0 52.6,361.0 53.5,361.0 53.8,361.0 55.5,361.0 55.9,361.0 56.9,361.0 57.5,361.0 58.2,361.0 58.9,356.2 59.5,356.2 60.8,346.3 62.1,343.3 63.0,334.9 63.5,332.9 64.7,332.9 71.8,334.8 72.4,332.8 72.9,328.1 76.6,326.5 77.4,319.3 78.7,318.5 80.0,317.3 80.6,317.3 81.6,317.3 93.3,307.9 94.1,305.1 96.5,298.8 97.4,297.1 312.9,297.1 313.8,297.1 316.4,297.1 320.6,297.1 340.7,297.1 345.8,297.1 545.7,295.2 547.1,295.2 554.0,287.5 595.0,287.5 610.0,287.5" fill="none" stroke="#3987e5" stroke-width="2" stroke-linejoin="round" stroke-linecap="round"/>
<circle cx="610.0" cy="287.5" r="4" fill="#3987e5" stroke="#1a1a19" stroke-width="2"/>
<text x="622.0" y="291.5" fill="#c3c2b7" font-size="12" font-weight="400" text-anchor="start" style="font-variant-numeric: tabular-nums">105.4 KB</text>
<rect x="0" y="404" width="760" height="190" rx="8" fill="#1a1a19"/>
<text x="16.0" y="428.0" fill="#ffffff" font-size="14" font-weight="600" text-anchor="start" style="font-variant-numeric: tabular-nums">Lines of Java</text>
<rect x="16" y="438" width="10" height="10" rx="2" fill="#3987e5"/>
<text x="31.0" y="447.0" fill="#c3c2b7" font-size="12" font-weight="400" text-anchor="start" style="font-variant-numeric: tabular-nums">Compiler</text>
<rect x="105" y="438" width="10" height="10" rx="2" fill="#d95926"/>
<text x="120.0" y="447.0" fill="#c3c2b7" font-size="12" font-weight="400" text-anchor="start" style="font-variant-numeric: tabular-nums">Kernel</text>
<line x1="52.0" x2="610.0" y1="564.0" y2="564.0" stroke="#383835" stroke-width="1"/>
<text x="44.0" y="568.0" fill="#898781" font-size="11" font-weight="400" text-anchor="end" style="font-variant-numeric: tabular-nums">0</text>
<line x1="52.0" x2="610.0" y1="528.7" y2="528.7" stroke="#2c2c2a" stroke-width="1"/>
<text x="44.0" y="532.7" fill="#898781" font-size="11" font-weight="400" text-anchor="end" style="font-variant-numeric: tabular-nums">2500</text>
<line x1="52.0" x2="610.0" y1="493.3" y2="493.3" stroke="#2c2c2a" stroke-width="1"/>
<text x="44.0" y="497.3" fill="#898781" font-size="11" font-weight="400" text-anchor="end" style="font-variant-numeric: tabular-nums">5000</text>
<line x1="52.0" x2="610.0" y1="458.0" y2="458.0" stroke="#2c2c2a" stroke-width="1"/>
<text x="44.0" y="462.0" fill="#898781" font-size="11" font-weight="400" text-anchor="end" style="font-variant-numeric: tabular-nums">7500</text>
<text x="52.0" y="582.0" fill="#898781" font-size="11" font-weight="400" text-anchor="middle" style="font-variant-numeric: tabular-nums">Oct 3</text>
<text x="331.0" y="582.0" fill="#898781" font-size="11" font-weight="400" text-anchor="middle" style="font-variant-numeric: tabular-nums">Oct 4</text>
<text x="610.0" y="582.0" fill="#898781" font-size="11" font-weight="400" text-anchor="middle" style="font-variant-numeric: tabular-nums">Oct 5</text>
<polyline points="52.0,536.1 52.6,536.1 53.5,535.6 53.8,534.8 55.5,532.3 55.9,530.8 56.9,529.3 57.5,528.7 58.2,527.5 58.9,527.4 59.5,524.2 60.8,521.8 62.1,520.8 63.0,519.7 63.5,518.8 64.7,518.8 71.8,514.8 72.4,514.7 72.9,514.3 76.6,514.3 77.4,507.9 78.7,507.0 80.0,507.0 80.6,507.0 81.6,507.0 93.3,507.0 94.1,507.0 96.5,507.0 97.4,507.0 312.9,507.0 313.8,507.0 316.4,507.0 320.6,507.0 340.7,507.0 345.8,507.0 545.7,507.0 547.1,507.0 554.0,505.7 595.0,471.7 610.0,471.5" fill="none" stroke="#3987e5" stroke-width="2" stroke-linejoin="round" stroke-linecap="round"/>
<circle cx="610.0" cy="471.5" r="4" fill="#3987e5" stroke="#1a1a19" stroke-width="2"/>
<polyline points="52.0,561.5 52.6,561.5 53.5,560.9 53.8,560.3 55.5,560.2 55.9,559.1 56.9,558.8 57.5,551.2 58.2,551.2 58.9,544.9 59.5,543.8 60.8,541.5 62.1,540.1 63.0,533.6 63.5,533.5 64.7,533.5 71.8,531.6 72.4,529.7 72.9,526.7 76.6,525.5 77.4,519.8 78.7,519.1 80.0,518.0 80.6,496.1 81.6,496.1 93.3,492.5 94.1,489.8 96.5,485.8 97.4,480.4 312.9,480.4 313.8,480.4 316.4,480.4 320.6,480.4 340.7,480.2 345.8,480.2 545.7,478.9 547.1,478.9 554.0,471.6 595.0,471.6 610.0,471.6" fill="none" stroke="#d95926" stroke-width="2" stroke-linejoin="round" stroke-linecap="round"/>
<circle cx="610.0" cy="471.6" r="4" fill="#d95926" stroke="#1a1a19" stroke-width="2"/>
<text x="622.0" y="475.5" fill="#c3c2b7" font-size="12" font-weight="400" text-anchor="start" style="font-variant-numeric: tabular-nums">Compiler 6544</text>
<text x="622.0" y="490.5" fill="#c3c2b7" font-size="12" font-weight="400" text-anchor="start" style="font-variant-numeric: tabular-nums">Kernel 6537</text>
</svg>
