<svg xmlns="http://www.w3.org/2000/svg" width="760" height="594" viewBox="0 0 760 594" role="img" font-family="system-ui, -apple-system, 'Segoe UI', sans-serif">
<title>Duke progress</title>
<desc>Latest (39c8db5): Conformance 263; Unit 170; Panic 16; .text 258.6 KB; Compiler 8696; Kernel 9654; </desc>
<rect x="0" y="0" width="760" height="190" rx="8" fill="#fcfcfb"/>
<text x="16.0" y="24.0" fill="#0b0b0b" font-size="14" font-weight="600" text-anchor="start" style="font-variant-numeric: tabular-nums">Tests in the suites</text>
<rect x="16" y="34" width="10" height="10" rx="2" fill="#2a78d6"/>
<text x="31.0" y="43.0" fill="#52514e" font-size="12" font-weight="400" text-anchor="start" style="font-variant-numeric: tabular-nums">Conformance</text>
<rect x="126" y="34" width="10" height="10" rx="2" fill="#eb6834"/>
<text x="141.0" y="43.0" fill="#52514e" font-size="12" font-weight="400" text-anchor="start" style="font-variant-numeric: tabular-nums">Unit</text>
<rect x="187" y="34" width="10" height="10" rx="2" fill="#1baf7a"/>
<text x="202.0" y="43.0" fill="#52514e" font-size="12" font-weight="400" text-anchor="start" style="font-variant-numeric: tabular-nums">Panic</text>
<line x1="52.0" x2="610.0" y1="160.0" y2="160.0" stroke="#c3c2b7" stroke-width="1"/>
<text x="44.0" y="164.0" fill="#898781" font-size="11" font-weight="400" text-anchor="end" style="font-variant-numeric: tabular-nums">0</text>
<line x1="52.0" x2="610.0" y1="124.7" y2="124.7" stroke="#e1e0d9" stroke-width="1"/>
<text x="44.0" y="128.7" fill="#898781" font-size="11" font-weight="400" text-anchor="end" style="font-variant-numeric: tabular-nums">100</text>
<line x1="52.0" x2="610.0" y1="89.3" y2="89.3" stroke="#e1e0d9" stroke-width="1"/>
<text x="44.0" y="93.3" fill="#898781" font-size="11" font-weight="400" text-anchor="end" style="font-variant-numeric: tabular-nums">200</text>
<line x1="52.0" x2="610.0" y1="54.0" y2="54.0" stroke="#e1e0d9" stroke-width="1"/>
<text x="44.0" y="58.0" fill="#898781" font-size="11" font-weight="400" text-anchor="end" style="font-variant-numeric: tabular-nums">300</text>
<text x="52.0" y="178.0" fill="#898781" font-size="11" font-weight="400" text-anchor="middle" style="font-variant-numeric: tabular-nums">Oct 3</text>
<text x="331.0" y="178.0" fill="#898781" font-size="11" font-weight="400" text-anchor="middle" style="font-variant-numeric: tabular-nums">Oct 5</text>
<text x="610.0" y="178.0" fill="#898781" font-size="11" font-weight="400" text-anchor="middle" style="font-variant-numeric: tabular-nums">Oct 6</text>
<polyline points="52.0,134.2 52.4,134.2 53.0,130.7 53.3,126.4 54.5,123.6 54.8,121.1 55.4,116.9 55.9,107.7 56.4,105.2 56.9,98.2 57.4,92.2 58.3,92.2 59.2,92.2 59.8,84.4 60.1,83.0 61.0,83.0 66.1,80.5 66.5,80.5 66.9,80.5 69.5,80.5 70.0,80.5 71.0,80.5 71.9,80.5 72.3,73.4 73.0,73.4 81.3,73.4 81.9,73.4 83.6,73.1 84.2,73.1 237.2,73.1 237.8,73.1 239.7,73.1 242.7,73.1 257.0,73.1 260.6,73.1 402.5,72.7 403.5,72.4 408.4,69.9 437.5,69.9 448.2,69.9 464.3,67.4 465.5,67.1 561.8,67.1 562.7,67.1 569.3,67.1 574.1,67.1 581.6,67.1 583.6,67.1 594.1,67.1 597.4,67.1 604.3,67.1 605.2,67.1 606.6,67.1 607.3,67.1 607.9,67.1 608.9,67.1 610.0,67.1" fill="none" stroke="#2a78d6" stroke-width="2" stroke-linejoin="round" stroke-linecap="round"/>
<circle cx="610.0" cy="67.1" r="4" fill="#2a78d6" stroke="#fcfcfb" stroke-width="2"/>
<polyline points="52.0,127.8 52.4,127.8 53.0,127.8 53.3,127.8 54.5,126.8 54.8,126.8 55.4,126.8 55.9,125.4 56.4,125.0 56.9,125.0 57.4,125.0 58.3,118.3 59.2,118.3 59.8,116.9 60.1,116.9 61.0,116.9 66.1,116.5 66.5,116.2 66.9,116.2 69.5,116.2 70.0,115.8 71.0,113.0 71.9,113.0 72.3,113.0 73.0,113.0 81.3,113.0 81.9,113.0 83.6,113.0 84.2,113.0 237.2,113.0 237.8,113.0 239.7,113.0 242.7,113.0 257.0,113.0 260.6,113.0 402.5,113.0 403.5,113.0 408.4,113.0 437.5,107.0 448.2,106.6 464.3,106.6 465.5,106.6 561.8,105.6 562.7,104.2 569.3,104.2 574.1,103.8 581.6,103.8 583.6,102.4 594.1,102.4 597.4,102.4 604.3,102.4 605.2,102.1 606.6,101.0 607.3,101.0 607.9,100.3 608.9,100.3 610.0,99.9" fill="none" stroke="#eb6834" stroke-width="2" stroke-linejoin="round" stroke-linecap="round"/>
<circle cx="610.0" cy="99.9" r="4" fill="#eb6834" stroke="#fcfcfb" stroke-width="2"/>
<polyline points="52.0,160.0 52.4,160.0 53.0,160.0 53.3,160.0 54.5,160.0 54.8,157.2 55.4,157.2 55.9,157.2 56.4,157.2 56.9,157.2 57.4,157.2 58.3,155.8 59.2,155.4 59.8,155.1 60.1,154.7 61.0,154.7 66.1,154.7 66.5,154.7 66.9,154.7 69.5,154.7 70.0,154.7 71.0,154.3 71.9,154.3 72.3,154.3 73.0,154.3 81.3,154.3 81.9,154.3 83.6,154.3 84.2,154.3 237.2,154.3 237.8,154.3 239.7,154.3 242.7,154.3 257.0,154.3 260.6,154.3 402.5,154.3 403.5,154.3 408.4,154.3 437.5,154.3 448.2,154.3 464.3,154.3 465.5,154.3 561.8,154.3 562.7,154.3 569.3,154.3 574.1,154.3 581.6,154.3 583.6,154.3 594.1,154.3 597.4,154.3 604.3,154.3 605.2,154.3 606.6,154.3 607.3,154.3 607.9,154.3 608.9,154.3 610.0,154.3" fill="none" stroke="#1baf7a" stroke-width="2" stroke-linejoin="round" stroke-linecap="round"/>
<circle cx="610.0" cy="154.3" r="4" fill="#1baf7a" stroke="#fcfcfb" stroke-width="2"/>
<text x="622.0" y="71.1" fill="#52514e" font-size="12" font-weight="400" text-anchor="start" style="font-variant-numeric: tabular-nums">Conformance 263</text>
<text x="622.0" y="103.9" fill="#52514e" font-size="12" font-weight="400" text-anchor="start" style="font-variant-numeric: tabular-nums">Unit 170</text>
<text x="622.0" y="158.3" fill="#52514e" font-size="12" font-weight="400" text-anchor="start" style="font-variant-numeric: tabular-nums">Panic 16</text>
<rect x="0" y="202" width="760" height="190" rx="8" fill="#fcfcfb"/>
<text x="16.0" y="226.0" fill="#0b0b0b" font-size="14" font-weight="600" text-anchor="start" style="font-variant-numeric: tabular-nums">Boot kernel code size (.text)</text>
<line x1="52.0" x2="610.0" y1="362.0" y2="362.0" stroke="#c3c2b7" stroke-width="1"/>
<text x="44.0" y="366.0" fill="#898781" font-size="11" font-weight="400" text-anchor="end" style="font-variant-numeric: tabular-nums">0</text>
<line x1="52.0" x2="610.0" y1="326.7" y2="326.7" stroke="#e1e0d9" stroke-width="1"/>
<text x="44.0" y="330.7" fill="#898781" font-size="11" font-weight="400" text-anchor="end" style="font-variant-numeric: tabular-nums">100</text>
<line x1="52.0" x2="610.0" y1="291.3" y2="291.3" stroke="#e1e0d9" stroke-width="1"/>
<text x="44.0" y="295.3" fill="#898781" font-size="11" font-weight="400" text-anchor="end" style="font-variant-numeric: tabular-nums">200</text>
<line x1="52.0" x2="610.0" y1="256.0" y2="256.0" stroke="#e1e0d9" stroke-width="1"/>
<text x="44.0" y="260.0" fill="#898781" font-size="11" font-weight="400" text-anchor="end" style="font-variant-numeric: tabular-nums">300</text>
<text x="52.0" y="380.0" fill="#898781" font-size="11" font-weight="400" text-anchor="middle" style="font-variant-numeric: tabular-nums">Oct 3</text>
<text x="331.0" y="380.0" fill="#898781" font-size="11" font-weight="400" text-anchor="middle" style="font-variant-numeric: tabular-nums">Oct 5</text>
<text x="610.0" y="380.0" fill="#898781" font-size="11" font-weight="400" text-anchor="middle" style="font-variant-numeric: tabular-nums">Oct 6</text>
<polyline points="52.0,361.5 52.4,361.5 53.0,361.5 53.3,361.5 54.5,361.5 54.8,361.5 55.4,361.5 55.9,361.5 56.4,361.5 56.9,359.1 57.4,359.1 58.3,354.2 59.2,352.6 59.8,348.4 60.1,347.5 61.0,347.5 66.1,348.4 66.5,347.4 66.9,345.0 69.5,344.2 70.0,340.6 71.0,340.2 71.9,339.7 72.3,339.7 73.0,339.7 81.3,335.0 81.9,333.5 83.6,330.4 84.2,329.6 237.2,329.6 237.8,329.6 239.7,329.6 242.7,329.6 257.0,329.6 260.6,329.6 402.5,328.6 403.5,328.6 408.4,324.8 437.5,324.8 448.2,324.8 464.3,323.7 465.5,323.2 561.8,323.2 562.7,323.2 569.3,323.2 574.1,293.6 581.6,293.6 583.6,293.0 594.1,293.0 597.4,291.5 604.3,283.1 605.2,279.6 606.6,279.6 607.3,279.1 607.9,279.1 608.9,271.4 610.0,270.6" fill="none" stroke="#2a78d6" stroke-width="2" stroke-linejoin="round" stroke-linecap="round"/>
<circle cx="610.0" cy="270.6" r="4" fill="#2a78d6" stroke="#fcfcfb" stroke-width="2"/>
<text x="622.0" y="274.6" fill="#52514e" font-size="12" font-weight="400" text-anchor="start" style="font-variant-numeric: tabular-nums">258.6 KB</text>
<rect x="0" y="404" width="760" height="190" rx="8" fill="#fcfcfb"/>
<text x="16.0" y="428.0" fill="#0b0b0b" font-size="14" font-weight="600" text-anchor="start" style="font-variant-numeric: tabular-nums">Lines of Java</text>
<rect x="16" y="438" width="10" height="10" rx="2" fill="#2a78d6"/>
<text x="31.0" y="447.0" fill="#52514e" font-size="12" font-weight="400" text-anchor="start" style="font-variant-numeric: tabular-nums">Compiler</text>
<rect x="105" y="438" width="10" height="10" rx="2" fill="#eb6834"/>
<text x="120.0" y="447.0" fill="#52514e" font-size="12" font-weight="400" text-anchor="start" style="font-variant-numeric: tabular-nums">Kernel</text>
<line x1="52.0" x2="610.0" y1="564.0" y2="564.0" stroke="#c3c2b7" stroke-width="1"/>
<text x="44.0" y="568.0" fill="#898781" font-size="11" font-weight="400" text-anchor="end" style="font-variant-numeric: tabular-nums">0</text>
<line x1="52.0" x2="610.0" y1="511.0" y2="511.0" stroke="#e1e0d9" stroke-width="1"/>
<text x="44.0" y="515.0" fill="#898781" font-size="11" font-weight="400" text-anchor="end" style="font-variant-numeric: tabular-nums">5000</text>
<line x1="52.0" x2="610.0" y1="458.0" y2="458.0" stroke="#e1e0d9" stroke-width="1"/>
<text x="44.0" y="462.0" fill="#898781" font-size="11" font-weight="400" text-anchor="end" style="font-variant-numeric: tabular-nums">10000</text>
<text x="52.0" y="582.0" fill="#898781" font-size="11" font-weight="400" text-anchor="middle" style="font-variant-numeric: tabular-nums">Oct 3</text>
<text x="331.0" y="582.0" fill="#898781" font-size="11" font-weight="400" text-anchor="middle" style="font-variant-numeric: tabular-nums">Oct 5</text>
<text x="610.0" y="582.0" fill="#898781" font-size="11" font-weight="400" text-anchor="middle" style="font-variant-numeric: tabular-nums">Oct 6</text>
<polyline points="52.0,543.1 52.4,543.1 53.0,542.7 53.3,542.1 54.5,540.2 54.8,539.1 55.4,538.0 55.9,537.5 56.4,536.6 56.9,536.6 57.4,534.2 58.3,532.4 59.2,531.6 59.8,530.8 60.1,530.1 61.0,530.1 66.1,527.1 66.5,527.0 66.9,526.7 69.5,526.7 70.0,521.9 71.0,521.3 71.9,521.3 72.3,521.3 73.0,521.3 81.3,521.3 81.9,521.3 83.6,521.3 84.2,521.3 237.2,521.3 237.8,521.3 239.7,521.3 242.7,521.3 257.0,521.3 260.6,521.3 402.5,521.3 403.5,521.3 408.4,520.3 437.5,494.8 448.2,494.6 464.3,494.1 465.5,493.7 561.8,493.2 562.7,485.4 569.3,485.4 574.1,485.3 581.6,485.3 583.6,484.8 594.1,484.8 597.4,484.3 604.3,483.6 605.2,482.7 606.6,479.3 607.3,477.6 607.9,474.3 608.9,474.0 610.0,471.8" fill="none" stroke="#2a78d6" stroke-width="2" stroke-linejoin="round" stroke-linecap="round"/>
<circle cx="610.0" cy="471.8" r="4" fill="#2a78d6" stroke="#fcfcfb" stroke-width="2"/>
<polyline points="52.0,562.1 52.4,562.1 53.0,561.7 53.3,561.2 54.5,561.1 54.8,560.3 55.4,560.1 55.9,554.4 56.4,554.4 56.9,549.6 57.4,548.8 58.3,547.1 59.2,546.1 59.8,541.2 60.1,541.1 61.0,541.1 66.1,539.7 66.5,538.3 66.9,536.1 69.5,535.1 70.0,530.9 71.0,530.3 71.9,529.5 72.3,513.0 73.0,513.0 81.3,510.4 81.9,508.3 83.6,505.4 84.2,501.3 237.2,501.3 237.8,501.3 239.7,501.3 242.7,501.3 257.0,501.2 260.6,501.2 402.5,500.1 403.5,500.1 408.4,494.7 437.5,494.7 448.2,494.7 464.3,491.4 465.5,491.0 561.8,491.0 562.7,478.6 569.3,478.6 574.1,477.2 581.6,477.2 583.6,477.1 594.1,477.1 597.4,475.3 604.3,470.3 605.2,469.0 606.6,469.0 607.3,467.7 607.9,467.3 608.9,463.2 610.0,461.7" fill="none" stroke="#eb6834" stroke-width="2" stroke-linejoin="round" stroke-linecap="round"/>
<circle cx="610.0" cy="461.7" r="4" fill="#eb6834" stroke="#fcfcfb" stroke-width="2"/>
<text x="622.0" y="465.7" fill="#52514e" font-size="12" font-weight="400" text-anchor="start" style="font-variant-numeric: tabular-nums">Kernel 9654</text>
<text x="622.0" y="480.7" fill="#52514e" font-size="12" font-weight="400" text-anchor="start" style="font-variant-numeric: tabular-nums">Compiler 8696</text>
</svg>
